<?xml version="1.0" encoding="UTF-8"?><svg id="_イヤー_1" xmlns="http://www.w3.org/2000/svg" viewBox="0 0 854 179"><defs><style>.cls-1{fill:#231815;}</style></defs><g><path class="cls-1" d="M109.47,68.92c-.11,0-.22-.02-.32-.05L25.47,43.26c-.46-.14-.78-.57-.78-1.06s.32-.92,.78-1.06L109.15,15.53c.21-.06,.44-.06,.65,0l83.67,25.61c.46,.14,.78,.57,.78,1.06s-.32,.91-.78,1.06l-83.67,25.61c-.11,.03-.22,.05-.32,.05ZM29.57,42.2l79.9,24.46,79.9-24.46L109.47,17.74,29.57,42.2Z"/><path class="cls-1" d="M109.89,102.65c-.11,0-.21-.02-.32-.05L24.19,76.98c-.47-.14-.79-.57-.79-1.06v-25.62c0-.35,.16-.68,.44-.89,.28-.21,.64-.27,.98-.17l85.06,25.52,85.07-25.52c.33-.1,.7-.04,.98,.17,.28,.21,.45,.54,.45,.89v25.62c0,.49-.32,.92-.79,1.06l-85.38,25.62c-.1,.03-.21,.05-.32,.05ZM25.62,75.1l84.28,25.28,84.28-25.28v-23.31l-83.96,25.19c-.2,.06-.43,.06-.63,0L25.62,51.8v23.31Z"/><path class="cls-1" d="M109.89,102.65c-.61,0-1.1-.5-1.1-1.11v-25.61c0-.61,.5-1.11,1.1-1.11s1.1,.5,1.1,1.11v25.61c0,.61-.5,1.11-1.1,1.11Z"/><path class="cls-1" d="M109.89,136.79c-.11,0-.21-.02-.32-.05L24.19,111.14c-.47-.14-.79-.57-.79-1.06v-25.62c0-.35,.16-.68,.44-.89,.28-.21,.64-.27,.98-.17l85.06,25.52,85.07-25.52c.33-.1,.7-.04,.98,.17,.28,.21,.45,.54,.45,.89v25.62c0,.49-.32,.92-.79,1.06l-85.38,25.61c-.1,.03-.21,.05-.32,.05ZM25.62,109.26l84.28,25.28,84.28-25.28v-23.31l-83.96,25.19c-.2,.06-.43,.06-.63,0L25.62,85.95v23.31Z"/><path class="cls-1" d="M109.89,136.79c-.61,0-1.1-.49-1.1-1.1v-25.61c0-.61,.5-1.1,1.1-1.1s1.1,.5,1.1,1.1v25.61c0,.61-.5,1.1-1.1,1.1Z"/><path class="cls-1" d="M109.89,171.8c-.11,0-.21-.02-.32-.05l-85.38-25.61c-.47-.14-.79-.57-.79-1.06v-25.61c0-.35,.16-.68,.44-.89,.28-.21,.64-.27,.98-.17l85.06,25.52,85.07-25.52c.33-.1,.7-.04,.98,.17,.28,.21,.45,.54,.45,.89v25.61c0,.49-.32,.92-.79,1.06l-85.38,25.61c-.1,.03-.21,.05-.32,.05Zm-84.28-27.54l84.28,25.28,84.28-25.28v-23.3l-83.96,25.18c-.2,.06-.43,.06-.63,0L25.62,120.95v23.3Z"/><path class="cls-1" d="M109.89,171.8c-.61,0-1.1-.5-1.1-1.11v-25.62c0-.61,.5-1.1,1.1-1.1s1.1,.49,1.1,1.1v25.62c0,.61-.5,1.11-1.1,1.11Z"/></g><g><g><path d="M262.91,122.88h-20.9l-3.64,22.96h-14.25l17.58-99.12h20.74l18.84,99.12h-14.41l-3.96-22.96Zm-1.9-11.56l-9.03-52.25-8.23,52.25h17.26Z"/><path d="M323.54,75.7v-13.14c0-3.8-.95-4.59-4.75-4.59h-8.08c-3.8,0-4.75,.79-4.75,4.59v67.61c0,3.8,.95,4.59,4.75,4.59h8.08c3.8,0,4.75-.79,4.75-4.59v-24.23h-7.92v-11.08h22.33v37.05c0,9.18-4.59,14.09-14.73,14.09h-16.94c-10.13,0-14.73-4.91-14.73-14.09V60.65c0-9.03,4.59-13.93,14.73-13.93h16.94c10.13,0,14.73,4.91,14.73,13.93v15.04h-14.41Z"/><path d="M369.97,46.72v99.12h-14.25V46.72h14.25Z"/><path d="M428,134.28v11.56h-38.79V46.72h14.25v87.56h24.54Z"/><path d="M478.22,134.28v11.56h-43.07V46.72h41.96v11.56h-27.55v30.56h22.8v11.56h-22.8v33.89h28.66Z"/></g><g><path d="M547.72,105.46c0-3.8-.79-4.59-4.59-4.59h-11.72c-10.13,0-14.41-5.07-14.41-14.09v-26.13c0-9.03,4.59-13.93,14.73-13.93h15.52c10.29,0,14.73,4.91,14.73,13.93v14.57h-14.41v-12.35c0-3.8-.95-4.59-4.75-4.59h-6.65c-3.8,0-4.75,.79-4.75,4.59v22.01c0,3.8,.95,4.59,4.75,4.59h11.56c10.13,0,14.57,4.91,14.57,13.94v28.5c0,9.02-4.59,13.93-14.88,13.93h-15.36c-10.13,0-14.73-4.91-14.73-13.93v-14.57h14.41v12.35c0,3.8,.95,4.59,4.75,4.59h6.65c3.8,0,4.59-.79,4.59-4.59v-24.23Z"/><path d="M616.45,58.28h-16.63v87.56h-14.25V58.28h-16.63v-11.56h47.5v11.56Z"/><path d="M672.34,46.72v85.19c0,9.02-4.59,13.93-14.88,13.93h-17.58c-10.29,0-14.88-4.91-14.88-13.93V46.72h14.41v82.97c0,3.8,.95,4.59,4.75,4.59h9.03c3.96,0,4.75-.79,4.75-4.59V46.72h14.41Z"/><path d="M723.18,46.72c10.13,0,14.73,4.91,14.73,13.93v71.25c0,9.02-4.59,13.93-14.73,13.93h-34.52V46.72h34.52Zm.32,15.83c0-3.8-.95-4.59-4.75-4.59h-15.68v76.64h15.68c3.8,0,4.75-.79,4.75-4.59V62.55Z"/><path d="M769.1,46.72v99.12h-14.25V46.72h14.25Z"/><path d="M818.5,46.72c10.29,0,14.73,4.91,14.73,13.93v71.25c0,9.02-4.43,13.93-14.73,13.93h-17.58c-10.29,0-14.88-4.91-14.88-13.93V60.65c0-9.03,4.59-13.93,14.88-13.93h17.58Zm.48,16.15c0-3.8-.95-4.59-4.75-4.59h-9.18c-3.8,0-4.59,.79-4.59,4.59v66.82c0,3.8,.79,4.59,4.59,4.59h9.18c3.8,0,4.75-.79,4.75-4.59V62.87Z"/></g></g></svg>